<?xml version="1.0" encoding="utf-8"?>
<!-- Generator: Adobe Illustrator 22.1.0, SVG Export Plug-In . SVG Version: 6.00 Build 0)  -->
<svg version="1.1" id="Layer_1" xmlns="http://www.w3.org/2000/svg" xmlns:xlink="http://www.w3.org/1999/xlink" x="0px" y="0px"
	 viewBox="0 0 512 512" fill="#9a9db0" xml:space="preserve">
<g>
	<path d="M331,181c41.4,0,75-33.6,75-75s-33.6-75-75-75H181c-41.4,0-75,33.6-75,75s33.6,75,75,75c-41.4,0-75,33.6-75,75
		c0,41.4,33.6,75,75,75c-41.4,0-75,33.5-75.1,75c0,41.4,33.5,75,75,75.1c41.4,0,75-33.5,75.1-75V181L331,181z M331,181
		c-41.4,0-75,33.6-75,75s33.6,75,75,75c41.4,0,75-33.6,75-75l0,0C406,214.6,372.4,181,331,181z"/>
</g>
</svg>
